<mxfile host="app.diagrams.net" agent="Mozilla/5.0 (Windows NT 10.0; Win64; x64) AppleWebKit/537.36 (KHTML, like Gecko) Chrome/135.0.0.0 Safari/537.36" version="26.2.14">
  <diagram id="C5RBs43oDa-KdzZeNtuy" name="Page-1">
    <mxGraphModel dx="1577" dy="811" grid="1" gridSize="10" guides="1" tooltips="1" connect="1" arrows="1" fold="1" page="1" pageScale="1" pageWidth="827" pageHeight="1169" math="0" shadow="0">
      <root>
        <mxCell id="WIyWlLk6GJQsqaUBKTNV-0" />
        <mxCell id="WIyWlLk6GJQsqaUBKTNV-1" parent="WIyWlLk6GJQsqaUBKTNV-0" />
        <mxCell id="BSAUwJKBO7j2kIfMWwGT-10" value="" style="edgeStyle=orthogonalEdgeStyle;rounded=0;orthogonalLoop=1;jettySize=auto;html=1;" edge="1" parent="WIyWlLk6GJQsqaUBKTNV-1" source="WIyWlLk6GJQsqaUBKTNV-3" target="BSAUwJKBO7j2kIfMWwGT-1">
          <mxGeometry relative="1" as="geometry" />
        </mxCell>
        <mxCell id="WIyWlLk6GJQsqaUBKTNV-3" value="CAN init" style="rounded=1;whiteSpace=wrap;html=1;fontSize=12;glass=0;strokeWidth=1;shadow=0;" parent="WIyWlLk6GJQsqaUBKTNV-1" vertex="1">
          <mxGeometry x="160" y="80" width="120" height="40" as="geometry" />
        </mxCell>
        <mxCell id="BSAUwJKBO7j2kIfMWwGT-9" value="" style="edgeStyle=orthogonalEdgeStyle;rounded=0;orthogonalLoop=1;jettySize=auto;html=1;" edge="1" parent="WIyWlLk6GJQsqaUBKTNV-1" source="BSAUwJKBO7j2kIfMWwGT-1" target="BSAUwJKBO7j2kIfMWwGT-3">
          <mxGeometry relative="1" as="geometry" />
        </mxCell>
        <mxCell id="BSAUwJKBO7j2kIfMWwGT-1" value="Filter and Header Configuration" style="rounded=0;whiteSpace=wrap;html=1;fontSize=12;glass=0;strokeWidth=1;shadow=0;" vertex="1" parent="WIyWlLk6GJQsqaUBKTNV-1">
          <mxGeometry x="160" y="160" width="120" height="40" as="geometry" />
        </mxCell>
        <mxCell id="BSAUwJKBO7j2kIfMWwGT-32" value="" style="edgeStyle=orthogonalEdgeStyle;rounded=0;orthogonalLoop=1;jettySize=auto;html=1;" edge="1" parent="WIyWlLk6GJQsqaUBKTNV-1" source="BSAUwJKBO7j2kIfMWwGT-3" target="BSAUwJKBO7j2kIfMWwGT-31">
          <mxGeometry relative="1" as="geometry" />
        </mxCell>
        <mxCell id="BSAUwJKBO7j2kIfMWwGT-3" value="CAN start" style="rounded=0;whiteSpace=wrap;html=1;fontSize=12;glass=0;strokeWidth=1;shadow=0;" vertex="1" parent="WIyWlLk6GJQsqaUBKTNV-1">
          <mxGeometry x="160" y="240" width="120" height="40" as="geometry" />
        </mxCell>
        <mxCell id="BSAUwJKBO7j2kIfMWwGT-7" value="" style="edgeStyle=orthogonalEdgeStyle;rounded=0;orthogonalLoop=1;jettySize=auto;html=1;" edge="1" parent="WIyWlLk6GJQsqaUBKTNV-1" source="BSAUwJKBO7j2kIfMWwGT-5">
          <mxGeometry relative="1" as="geometry">
            <mxPoint x="440.0666666666666" y="120.00190476190465" as="sourcePoint" />
            <mxPoint x="440" y="180.04000000000002" as="targetPoint" />
          </mxGeometry>
        </mxCell>
        <mxCell id="BSAUwJKBO7j2kIfMWwGT-22" value="" style="edgeStyle=orthogonalEdgeStyle;rounded=0;orthogonalLoop=1;jettySize=auto;html=1;" edge="1" parent="WIyWlLk6GJQsqaUBKTNV-1" source="BSAUwJKBO7j2kIfMWwGT-5" target="BSAUwJKBO7j2kIfMWwGT-21">
          <mxGeometry relative="1" as="geometry" />
        </mxCell>
        <mxCell id="BSAUwJKBO7j2kIfMWwGT-77" value="" style="edgeStyle=orthogonalEdgeStyle;rounded=0;orthogonalLoop=1;jettySize=auto;html=1;" edge="1" parent="WIyWlLk6GJQsqaUBKTNV-1" source="BSAUwJKBO7j2kIfMWwGT-13" target="BSAUwJKBO7j2kIfMWwGT-36">
          <mxGeometry relative="1" as="geometry" />
        </mxCell>
        <mxCell id="BSAUwJKBO7j2kIfMWwGT-13" value="Transmit message" style="rounded=0;whiteSpace=wrap;html=1;fontSize=12;glass=0;strokeWidth=1;shadow=0;" vertex="1" parent="WIyWlLk6GJQsqaUBKTNV-1">
          <mxGeometry x="160" y="420" width="120" height="40" as="geometry" />
        </mxCell>
        <mxCell id="BSAUwJKBO7j2kIfMWwGT-19" value="No" style="text;html=1;align=center;verticalAlign=middle;whiteSpace=wrap;rounded=0;" vertex="1" parent="WIyWlLk6GJQsqaUBKTNV-1">
          <mxGeometry x="330" y="330" width="60" height="30" as="geometry" />
        </mxCell>
        <mxCell id="BSAUwJKBO7j2kIfMWwGT-24" value="" style="edgeStyle=orthogonalEdgeStyle;rounded=0;orthogonalLoop=1;jettySize=auto;html=1;" edge="1" parent="WIyWlLk6GJQsqaUBKTNV-1" source="BSAUwJKBO7j2kIfMWwGT-21" target="BSAUwJKBO7j2kIfMWwGT-23">
          <mxGeometry relative="1" as="geometry" />
        </mxCell>
        <mxCell id="BSAUwJKBO7j2kIfMWwGT-21" value="Counter ++" style="rounded=0;whiteSpace=wrap;html=1;fontSize=12;glass=0;strokeWidth=1;shadow=0;" vertex="1" parent="WIyWlLk6GJQsqaUBKTNV-1">
          <mxGeometry x="380" y="239.99999999999997" width="120" height="40" as="geometry" />
        </mxCell>
        <mxCell id="BSAUwJKBO7j2kIfMWwGT-29" value="" style="edgeStyle=orthogonalEdgeStyle;rounded=0;orthogonalLoop=1;jettySize=auto;html=1;" edge="1" parent="WIyWlLk6GJQsqaUBKTNV-1" source="BSAUwJKBO7j2kIfMWwGT-23" target="BSAUwJKBO7j2kIfMWwGT-28">
          <mxGeometry relative="1" as="geometry" />
        </mxCell>
        <mxCell id="BSAUwJKBO7j2kIfMWwGT-80" value="" style="edgeStyle=orthogonalEdgeStyle;rounded=0;orthogonalLoop=1;jettySize=auto;html=1;" edge="1" parent="WIyWlLk6GJQsqaUBKTNV-1" source="BSAUwJKBO7j2kIfMWwGT-23" target="BSAUwJKBO7j2kIfMWwGT-31">
          <mxGeometry relative="1" as="geometry" />
        </mxCell>
        <mxCell id="BSAUwJKBO7j2kIfMWwGT-23" value="Counter &amp;gt; 20?" style="rhombus;whiteSpace=wrap;html=1;shadow=0;fontFamily=Helvetica;fontSize=12;align=center;strokeWidth=1;spacing=6;spacingTop=-4;" vertex="1" parent="WIyWlLk6GJQsqaUBKTNV-1">
          <mxGeometry x="375" y="319.99999999999994" width="130" height="80" as="geometry" />
        </mxCell>
        <mxCell id="BSAUwJKBO7j2kIfMWwGT-81" style="edgeStyle=orthogonalEdgeStyle;rounded=0;orthogonalLoop=1;jettySize=auto;html=1;" edge="1" parent="WIyWlLk6GJQsqaUBKTNV-1" source="BSAUwJKBO7j2kIfMWwGT-28">
          <mxGeometry relative="1" as="geometry">
            <mxPoint x="330" y="360" as="targetPoint" />
          </mxGeometry>
        </mxCell>
        <mxCell id="BSAUwJKBO7j2kIfMWwGT-28" value="UART Transmit" style="rounded=0;whiteSpace=wrap;html=1;fontSize=12;glass=0;strokeWidth=1;shadow=0;" vertex="1" parent="WIyWlLk6GJQsqaUBKTNV-1">
          <mxGeometry x="380" y="440" width="120" height="40" as="geometry" />
        </mxCell>
        <mxCell id="BSAUwJKBO7j2kIfMWwGT-30" value="Yes" style="text;html=1;align=center;verticalAlign=middle;whiteSpace=wrap;rounded=0;" vertex="1" parent="WIyWlLk6GJQsqaUBKTNV-1">
          <mxGeometry x="440" y="400" width="60" height="30" as="geometry" />
        </mxCell>
        <mxCell id="BSAUwJKBO7j2kIfMWwGT-33" value="" style="edgeStyle=orthogonalEdgeStyle;rounded=0;orthogonalLoop=1;jettySize=auto;html=1;" edge="1" parent="WIyWlLk6GJQsqaUBKTNV-1" source="BSAUwJKBO7j2kIfMWwGT-31" target="BSAUwJKBO7j2kIfMWwGT-13">
          <mxGeometry relative="1" as="geometry" />
        </mxCell>
        <mxCell id="BSAUwJKBO7j2kIfMWwGT-31" value="While (1)" style="rounded=0;whiteSpace=wrap;html=1;fontSize=12;glass=0;strokeWidth=1;shadow=0;" vertex="1" parent="WIyWlLk6GJQsqaUBKTNV-1">
          <mxGeometry x="170" y="340" width="100" height="40" as="geometry" />
        </mxCell>
        <mxCell id="BSAUwJKBO7j2kIfMWwGT-39" style="edgeStyle=orthogonalEdgeStyle;rounded=0;orthogonalLoop=1;jettySize=auto;html=1;entryX=0;entryY=0.5;entryDx=0;entryDy=0;" edge="1" parent="WIyWlLk6GJQsqaUBKTNV-1" source="BSAUwJKBO7j2kIfMWwGT-36" target="BSAUwJKBO7j2kIfMWwGT-31">
          <mxGeometry relative="1" as="geometry">
            <Array as="points">
              <mxPoint x="75" y="360" />
            </Array>
          </mxGeometry>
        </mxCell>
        <mxCell id="BSAUwJKBO7j2kIfMWwGT-36" value="Delay 100ms" style="rounded=0;whiteSpace=wrap;html=1;fontSize=12;glass=0;strokeWidth=1;shadow=0;" vertex="1" parent="WIyWlLk6GJQsqaUBKTNV-1">
          <mxGeometry x="30" y="420" width="90" height="40" as="geometry" />
        </mxCell>
        <mxCell id="BSAUwJKBO7j2kIfMWwGT-74" value="Receive Interrupt" style="rounded=1;whiteSpace=wrap;html=1;fontSize=12;glass=0;strokeWidth=1;shadow=0;" vertex="1" parent="WIyWlLk6GJQsqaUBKTNV-1">
          <mxGeometry x="380" y="80" width="120" height="40" as="geometry" />
        </mxCell>
        <mxCell id="BSAUwJKBO7j2kIfMWwGT-79" value="" style="edgeStyle=orthogonalEdgeStyle;rounded=0;orthogonalLoop=1;jettySize=auto;html=1;" edge="1" parent="WIyWlLk6GJQsqaUBKTNV-1" target="BSAUwJKBO7j2kIfMWwGT-5">
          <mxGeometry relative="1" as="geometry">
            <mxPoint x="440.0666666666666" y="120.00190476190465" as="sourcePoint" />
            <mxPoint x="440" y="180.04000000000002" as="targetPoint" />
          </mxGeometry>
        </mxCell>
        <mxCell id="BSAUwJKBO7j2kIfMWwGT-5" value="Get receive message" style="rounded=0;whiteSpace=wrap;html=1;fontSize=12;glass=0;strokeWidth=1;shadow=0;" vertex="1" parent="WIyWlLk6GJQsqaUBKTNV-1">
          <mxGeometry x="380" y="160.00000000000003" width="120" height="40" as="geometry" />
        </mxCell>
        <mxCell id="BSAUwJKBO7j2kIfMWwGT-82" value="" style="edgeStyle=orthogonalEdgeStyle;rounded=0;orthogonalLoop=1;jettySize=auto;html=1;" edge="1" source="BSAUwJKBO7j2kIfMWwGT-83" target="BSAUwJKBO7j2kIfMWwGT-85" parent="WIyWlLk6GJQsqaUBKTNV-1">
          <mxGeometry relative="1" as="geometry" />
        </mxCell>
        <mxCell id="BSAUwJKBO7j2kIfMWwGT-83" value="CAN init" style="rounded=1;whiteSpace=wrap;html=1;fontSize=12;glass=0;strokeWidth=1;shadow=0;" vertex="1" parent="WIyWlLk6GJQsqaUBKTNV-1">
          <mxGeometry x="720" y="80" width="120" height="40" as="geometry" />
        </mxCell>
        <mxCell id="BSAUwJKBO7j2kIfMWwGT-84" value="" style="edgeStyle=orthogonalEdgeStyle;rounded=0;orthogonalLoop=1;jettySize=auto;html=1;" edge="1" source="BSAUwJKBO7j2kIfMWwGT-85" target="BSAUwJKBO7j2kIfMWwGT-87" parent="WIyWlLk6GJQsqaUBKTNV-1">
          <mxGeometry relative="1" as="geometry" />
        </mxCell>
        <mxCell id="BSAUwJKBO7j2kIfMWwGT-85" value="Filter and Header Configuration" style="rounded=0;whiteSpace=wrap;html=1;fontSize=12;glass=0;strokeWidth=1;shadow=0;" vertex="1" parent="WIyWlLk6GJQsqaUBKTNV-1">
          <mxGeometry x="720" y="160" width="120" height="40" as="geometry" />
        </mxCell>
        <mxCell id="BSAUwJKBO7j2kIfMWwGT-86" value="" style="edgeStyle=orthogonalEdgeStyle;rounded=0;orthogonalLoop=1;jettySize=auto;html=1;" edge="1" source="BSAUwJKBO7j2kIfMWwGT-87" target="BSAUwJKBO7j2kIfMWwGT-102" parent="WIyWlLk6GJQsqaUBKTNV-1">
          <mxGeometry relative="1" as="geometry" />
        </mxCell>
        <mxCell id="BSAUwJKBO7j2kIfMWwGT-87" value="CAN start" style="rounded=0;whiteSpace=wrap;html=1;fontSize=12;glass=0;strokeWidth=1;shadow=0;" vertex="1" parent="WIyWlLk6GJQsqaUBKTNV-1">
          <mxGeometry x="720" y="240" width="120" height="40" as="geometry" />
        </mxCell>
        <mxCell id="BSAUwJKBO7j2kIfMWwGT-88" value="" style="edgeStyle=orthogonalEdgeStyle;rounded=0;orthogonalLoop=1;jettySize=auto;html=1;" edge="1" source="BSAUwJKBO7j2kIfMWwGT-107" parent="WIyWlLk6GJQsqaUBKTNV-1">
          <mxGeometry relative="1" as="geometry">
            <mxPoint x="1000.0666666666666" y="120.00190476190465" as="sourcePoint" />
            <mxPoint x="1000" y="180.04000000000002" as="targetPoint" />
          </mxGeometry>
        </mxCell>
        <mxCell id="BSAUwJKBO7j2kIfMWwGT-89" value="" style="edgeStyle=orthogonalEdgeStyle;rounded=0;orthogonalLoop=1;jettySize=auto;html=1;" edge="1" source="BSAUwJKBO7j2kIfMWwGT-107" target="BSAUwJKBO7j2kIfMWwGT-94" parent="WIyWlLk6GJQsqaUBKTNV-1">
          <mxGeometry relative="1" as="geometry" />
        </mxCell>
        <mxCell id="BSAUwJKBO7j2kIfMWwGT-90" value="" style="edgeStyle=orthogonalEdgeStyle;rounded=0;orthogonalLoop=1;jettySize=auto;html=1;" edge="1" target="BSAUwJKBO7j2kIfMWwGT-104" parent="WIyWlLk6GJQsqaUBKTNV-1">
          <mxGeometry relative="1" as="geometry">
            <mxPoint x="720" y="440" as="sourcePoint" />
          </mxGeometry>
        </mxCell>
        <mxCell id="BSAUwJKBO7j2kIfMWwGT-92" value="No" style="text;html=1;align=center;verticalAlign=middle;whiteSpace=wrap;rounded=0;" vertex="1" parent="WIyWlLk6GJQsqaUBKTNV-1">
          <mxGeometry x="880" y="410" width="60" height="30" as="geometry" />
        </mxCell>
        <mxCell id="BSAUwJKBO7j2kIfMWwGT-109" value="" style="edgeStyle=orthogonalEdgeStyle;rounded=0;orthogonalLoop=1;jettySize=auto;html=1;" edge="1" parent="WIyWlLk6GJQsqaUBKTNV-1" source="BSAUwJKBO7j2kIfMWwGT-94" target="BSAUwJKBO7j2kIfMWwGT-108">
          <mxGeometry relative="1" as="geometry" />
        </mxCell>
        <mxCell id="BSAUwJKBO7j2kIfMWwGT-94" value="Counter ++" style="rounded=0;whiteSpace=wrap;html=1;fontSize=12;glass=0;strokeWidth=1;shadow=0;" vertex="1" parent="WIyWlLk6GJQsqaUBKTNV-1">
          <mxGeometry x="940" y="240" width="120" height="40" as="geometry" />
        </mxCell>
        <mxCell id="BSAUwJKBO7j2kIfMWwGT-95" value="" style="edgeStyle=orthogonalEdgeStyle;rounded=0;orthogonalLoop=1;jettySize=auto;html=1;" edge="1" source="BSAUwJKBO7j2kIfMWwGT-97" target="BSAUwJKBO7j2kIfMWwGT-99" parent="WIyWlLk6GJQsqaUBKTNV-1">
          <mxGeometry relative="1" as="geometry" />
        </mxCell>
        <mxCell id="BSAUwJKBO7j2kIfMWwGT-111" value="" style="edgeStyle=orthogonalEdgeStyle;rounded=0;orthogonalLoop=1;jettySize=auto;html=1;" edge="1" parent="WIyWlLk6GJQsqaUBKTNV-1" source="BSAUwJKBO7j2kIfMWwGT-97" target="BSAUwJKBO7j2kIfMWwGT-102">
          <mxGeometry relative="1" as="geometry" />
        </mxCell>
        <mxCell id="BSAUwJKBO7j2kIfMWwGT-97" value="Counter &amp;gt; 20?" style="rhombus;whiteSpace=wrap;html=1;shadow=0;fontFamily=Helvetica;fontSize=12;align=center;strokeWidth=1;spacing=6;spacingTop=-4;" vertex="1" parent="WIyWlLk6GJQsqaUBKTNV-1">
          <mxGeometry x="935" y="399.99999999999994" width="130" height="80" as="geometry" />
        </mxCell>
        <mxCell id="BSAUwJKBO7j2kIfMWwGT-98" style="edgeStyle=orthogonalEdgeStyle;rounded=0;orthogonalLoop=1;jettySize=auto;html=1;entryX=0.5;entryY=1;entryDx=0;entryDy=0;" edge="1" source="BSAUwJKBO7j2kIfMWwGT-99" parent="WIyWlLk6GJQsqaUBKTNV-1" target="BSAUwJKBO7j2kIfMWwGT-102">
          <mxGeometry relative="1" as="geometry">
            <mxPoint x="890" y="440" as="targetPoint" />
            <Array as="points">
              <mxPoint x="780" y="540" />
            </Array>
          </mxGeometry>
        </mxCell>
        <mxCell id="BSAUwJKBO7j2kIfMWwGT-99" value="UART Transmit" style="rounded=0;whiteSpace=wrap;html=1;fontSize=12;glass=0;strokeWidth=1;shadow=0;" vertex="1" parent="WIyWlLk6GJQsqaUBKTNV-1">
          <mxGeometry x="940" y="520" width="120" height="40" as="geometry" />
        </mxCell>
        <mxCell id="BSAUwJKBO7j2kIfMWwGT-100" value="Yes" style="text;html=1;align=center;verticalAlign=middle;whiteSpace=wrap;rounded=0;" vertex="1" parent="WIyWlLk6GJQsqaUBKTNV-1">
          <mxGeometry x="1000" y="480" width="60" height="30" as="geometry" />
        </mxCell>
        <mxCell id="BSAUwJKBO7j2kIfMWwGT-102" value="While (1)" style="rounded=0;whiteSpace=wrap;html=1;fontSize=12;glass=0;strokeWidth=1;shadow=0;" vertex="1" parent="WIyWlLk6GJQsqaUBKTNV-1">
          <mxGeometry x="730" y="420" width="100" height="40" as="geometry" />
        </mxCell>
        <mxCell id="BSAUwJKBO7j2kIfMWwGT-105" value="Receive Interrupt" style="rounded=1;whiteSpace=wrap;html=1;fontSize=12;glass=0;strokeWidth=1;shadow=0;" vertex="1" parent="WIyWlLk6GJQsqaUBKTNV-1">
          <mxGeometry x="940" y="80" width="120" height="40" as="geometry" />
        </mxCell>
        <mxCell id="BSAUwJKBO7j2kIfMWwGT-106" value="" style="edgeStyle=orthogonalEdgeStyle;rounded=0;orthogonalLoop=1;jettySize=auto;html=1;" edge="1" target="BSAUwJKBO7j2kIfMWwGT-107" parent="WIyWlLk6GJQsqaUBKTNV-1">
          <mxGeometry relative="1" as="geometry">
            <mxPoint x="1000.0666666666666" y="120.00190476190465" as="sourcePoint" />
            <mxPoint x="1000" y="180.04000000000002" as="targetPoint" />
          </mxGeometry>
        </mxCell>
        <mxCell id="BSAUwJKBO7j2kIfMWwGT-107" value="Get receive message" style="rounded=0;whiteSpace=wrap;html=1;fontSize=12;glass=0;strokeWidth=1;shadow=0;" vertex="1" parent="WIyWlLk6GJQsqaUBKTNV-1">
          <mxGeometry x="940" y="160.00000000000003" width="120" height="40" as="geometry" />
        </mxCell>
        <mxCell id="BSAUwJKBO7j2kIfMWwGT-110" value="" style="edgeStyle=orthogonalEdgeStyle;rounded=0;orthogonalLoop=1;jettySize=auto;html=1;" edge="1" parent="WIyWlLk6GJQsqaUBKTNV-1" source="BSAUwJKBO7j2kIfMWwGT-108" target="BSAUwJKBO7j2kIfMWwGT-97">
          <mxGeometry relative="1" as="geometry" />
        </mxCell>
        <mxCell id="BSAUwJKBO7j2kIfMWwGT-108" value="Transmit back" style="rounded=0;whiteSpace=wrap;html=1;fontSize=12;glass=0;strokeWidth=1;shadow=0;" vertex="1" parent="WIyWlLk6GJQsqaUBKTNV-1">
          <mxGeometry x="950" y="320" width="100" height="40" as="geometry" />
        </mxCell>
      </root>
    </mxGraphModel>
  </diagram>
</mxfile>
